<?xml version="1.0" encoding="utf-8"?>
<!-- Generator: Adobe Illustrator 25.4.1, SVG Export Plug-In . SVG Version: 6.00 Build 0)  -->
<svg version="1.1" id="Calque_1" xmlns="http://www.w3.org/2000/svg" xmlns:xlink="http://www.w3.org/1999/xlink" x="0px" y="0px"
	 viewBox="0 0 336.61 119.8" style="enable-background:new 0 0 336.61 119.8;" xml:space="preserve">
<style type="text/css">
	.st0{fill:#153C61;}
	.st1{fill:none;}
	.st2{fill:#CD1417;}
</style>
<g>
	<g>
		<path class="st0" d="M134.81,54.25v-7.19h19.45v17.01c-1.89,1.75-4.63,3.29-8.22,4.62c-3.59,1.33-7.22,2-10.9,2
			c-4.68,0-8.75-0.94-12.23-2.81c-3.48-1.87-6.09-4.55-7.84-8.04c-1.75-3.49-2.62-7.28-2.62-11.38c0-4.45,0.98-8.4,2.93-11.86
			c1.95-3.46,4.81-6.11,8.57-7.95c2.87-1.42,6.43-2.13,10.7-2.13c5.55,0,9.88,1.11,13,3.34s5.13,5.3,6.02,9.22l-8.96,1.6
			c-0.63-2.1-1.81-3.75-3.55-4.97c-1.74-1.21-3.91-1.82-6.51-1.82c-3.94,0-7.08,1.19-9.41,3.58c-2.33,2.39-3.49,5.93-3.49,10.63
			c0,5.07,1.18,8.87,3.54,11.41c2.36,2.54,5.45,3.8,9.27,3.8c1.89,0,3.79-0.35,5.69-1.06c1.9-0.71,3.53-1.57,4.89-2.58v-5.42H134.81
			z"/>
		<path class="st0" d="M162.59,69.95V27.25h33.14v7.23h-24.12v9.47h22.44v7.19h-22.44v11.63h24.97v7.19H162.59z"/>
		<path class="st0" d="M204.24,69.95V27.25h14.48c5.49,0,9.06,0.21,10.73,0.64c2.56,0.64,4.7,2.03,6.43,4.18
			c1.73,2.15,2.59,4.92,2.59,8.32c0,2.62-0.5,4.83-1.5,6.61c-1,1.79-2.26,3.19-3.79,4.21c-1.54,1.02-3.1,1.69-4.68,2.02
			c-2.15,0.41-5.27,0.61-9.36,0.61h-5.88v16.11H204.24z M213.26,34.47v12.12h4.94c3.56,0,5.93-0.22,7.14-0.67
			c1.2-0.45,2.14-1.15,2.82-2.1c0.68-0.95,1.02-2.06,1.02-3.32c0-1.55-0.48-2.84-1.43-3.85c-0.96-1.01-2.17-1.64-3.63-1.89
			c-1.08-0.2-3.24-0.29-6.49-0.29H213.26z"/>
		<path class="st0" d="M244.06,48.86c0-4.35,0.68-8,2.04-10.95c1.02-2.17,2.4-4.13,4.16-5.86c1.76-1.73,3.68-3.01,5.78-3.84
			c2.79-1.13,6-1.69,9.63-1.69c6.59,0,11.86,1.95,15.81,5.86c3.95,3.9,5.93,9.33,5.93,16.29c0,6.89-1.96,12.29-5.88,16.18
			c-3.92,3.9-9.17,5.84-15.73,5.84c-6.65,0-11.93-1.94-15.85-5.81C246.02,61,244.06,55.66,244.06,48.86z M253.36,48.57
			c0,4.84,1.17,8.5,3.5,11c2.34,2.49,5.3,3.74,8.9,3.74c3.6,0,6.55-1.24,8.86-3.71c2.31-2.48,3.46-6.19,3.46-11.14
			c0-4.89-1.12-8.54-3.37-10.95c-2.25-2.41-5.23-3.61-8.95-3.61c-3.72,0-6.72,1.22-8.99,3.66C254.5,39.98,253.36,43.66,253.36,48.57
			z"/>
		<path class="st0" d="M294.43,27.25h16.49c3.72,0,6.56,0.27,8.51,0.82c2.62,0.74,4.87,2.05,6.74,3.93
			c1.87,1.88,3.29,4.19,4.27,6.92c0.98,2.73,1.46,6.09,1.46,10.1c0,3.52-0.46,6.54-1.37,9.09c-1.12,3.11-2.72,5.62-4.79,7.55
			c-1.57,1.46-3.68,2.59-6.34,3.41c-1.99,0.6-4.65,0.9-7.99,0.9h-16.98V27.25z M303.45,34.47v28.29h6.74c2.52,0,4.34-0.14,5.46-0.41
			c1.46-0.35,2.68-0.94,3.64-1.78c0.97-0.83,1.75-2.21,2.36-4.12c0.61-1.91,0.92-4.52,0.92-7.82c0-3.3-0.3-5.84-0.92-7.6
			c-0.61-1.77-1.46-3.15-2.56-4.14c-1.1-0.99-2.49-1.66-4.18-2.01c-1.26-0.27-3.73-0.41-7.41-0.41H303.45z"/>
	</g>
	<g>
		<path class="st0" d="M3.85,111.45c0.33-0.06,0.54-0.17,0.63-0.32c0.09-0.16,0.14-0.45,0.14-0.88v-9.11c0-0.34-0.05-0.58-0.14-0.7
			c-0.09-0.13-0.3-0.22-0.63-0.28v-1.81H14.7v4.36h-2.93v-1.19c0-0.42-0.07-0.71-0.22-0.86c-0.15-0.16-0.45-0.24-0.91-0.24H7.76
			v4.05h3.91v2.1H7.76v4.61h2.53c0.31,0,0.57-0.01,0.76-0.04c0.2-0.03,0.35-0.09,0.45-0.18c0.11-0.09,0.18-0.22,0.21-0.38
			c0.03-0.16,0.05-0.38,0.05-0.65v-1.37h2.93v4.7H3.85V111.45z"/>
		<path class="st0" d="M22.86,117.2v-1.7c0.33-0.07,0.53-0.18,0.6-0.32s0.11-0.39,0.11-0.75v-1.88c-0.43,0.24-0.88,0.45-1.36,0.63
			c-0.48,0.18-1.04,0.27-1.66,0.27c-0.69,0-1.27-0.1-1.75-0.3s-0.86-0.48-1.16-0.83c-0.3-0.35-0.51-0.76-0.65-1.24
			c-0.14-0.48-0.21-1-0.21-1.57v-3.42c0-1.3,0.29-2.28,0.89-2.94c0.59-0.66,1.54-1,2.85-1c0.57,0,1.11,0.08,1.61,0.25
			c0.5,0.16,1,0.42,1.51,0.76v-0.85h2.7v12.06c0,0.4,0.04,0.67,0.11,0.82s0.27,0.26,0.6,0.35v1.68H22.86z M23.57,104.83
			c-0.33-0.24-0.65-0.42-0.97-0.54c-0.32-0.12-0.67-0.18-1.04-0.18c-0.28,0-0.54,0.03-0.79,0.1s-0.46,0.19-0.63,0.38
			c-0.17,0.19-0.31,0.44-0.41,0.77s-0.15,0.75-0.15,1.28v2.35c0.02,0.76,0.15,1.37,0.41,1.81c0.25,0.45,0.77,0.67,1.56,0.67
			c0.38,0,0.74-0.06,1.08-0.19s0.66-0.29,0.93-0.5V104.83z"/>
		<path class="st0" d="M36.21,113.27v-0.96c-0.43,0.33-0.9,0.6-1.41,0.81c-0.52,0.21-1.12,0.31-1.81,0.31
			c-0.62,0-1.14-0.08-1.56-0.23c-0.42-0.16-0.76-0.38-1.03-0.66s-0.46-0.62-0.58-1.01c-0.11-0.39-0.17-0.81-0.17-1.28v-5.17
			c0-0.36-0.04-0.61-0.11-0.75s-0.27-0.25-0.58-0.33v-1.7h3.34c0.08,0.48,0.13,0.91,0.15,1.29c0.02,0.38,0.02,0.87,0.02,1.47v4.45
			c0,0.7,0.13,1.21,0.38,1.51c0.25,0.31,0.66,0.46,1.22,0.46c0.46,0,0.87-0.1,1.24-0.3c0.37-0.2,0.64-0.4,0.82-0.59v-5.5
			c0-0.36-0.04-0.61-0.12-0.75s-0.28-0.25-0.59-0.33v-1.7h3.52v8.21c0,0.34,0.04,0.58,0.11,0.73c0.07,0.14,0.27,0.25,0.58,0.32v1.7
			H36.21z"/>
		<path class="st0" d="M41.62,111.56c0.29-0.07,0.48-0.18,0.57-0.32c0.08-0.14,0.12-0.39,0.12-0.75v-5.42
			c0-0.36-0.04-0.61-0.12-0.75s-0.27-0.25-0.57-0.33v-1.7h3.49v8.19c0,0.36,0.04,0.61,0.11,0.75c0.07,0.14,0.27,0.25,0.58,0.32v1.7
			h-4.18V111.56z M45.16,99.62c0,0.46-0.16,0.83-0.47,1.11c-0.31,0.28-0.71,0.41-1.18,0.41c-0.48,0-0.87-0.13-1.18-0.4
			s-0.47-0.64-0.47-1.12c0-0.43,0.16-0.79,0.47-1.06s0.71-0.41,1.18-0.41c0.48,0,0.87,0.14,1.18,0.41
			C45.01,98.83,45.16,99.18,45.16,99.62z"/>
		<path class="st0" d="M47.72,115.53c0.3-0.07,0.48-0.18,0.57-0.32c0.08-0.14,0.12-0.38,0.12-0.73v-9.4c0-0.36-0.04-0.61-0.12-0.75
			c-0.08-0.14-0.27-0.25-0.57-0.33v-1.7h3.42v0.85c1-0.67,2.02-1.01,3.07-1.01c0.75,0,1.38,0.11,1.87,0.31
			c0.49,0.21,0.88,0.49,1.16,0.85c0.28,0.36,0.48,0.78,0.59,1.25c0.11,0.48,0.17,0.98,0.17,1.52v3.54c0,1.15-0.29,2.07-0.87,2.77
			c-0.58,0.7-1.54,1.05-2.89,1.05c-0.62,0-1.18-0.09-1.66-0.27c-0.48-0.18-0.94-0.39-1.36-0.63v1.88c0,0.36,0.04,0.61,0.12,0.75
			s0.28,0.25,0.59,0.32v1.7h-4.21V115.53z M51.21,110.78c0.26,0.21,0.57,0.38,0.92,0.5c0.35,0.13,0.72,0.19,1.09,0.19
			c0.79,0,1.31-0.22,1.56-0.67c0.25-0.45,0.38-1.05,0.38-1.81v-2.35c0-0.52-0.05-0.95-0.15-1.28c-0.1-0.33-0.23-0.58-0.41-0.77
			c-0.17-0.19-0.38-0.31-0.61-0.38c-0.24-0.07-0.5-0.1-0.77-0.1c-0.72,0-1.39,0.24-2.02,0.72V110.78z"/>
		<path class="st0" d="M62.99,108.3v1.07c0,0.79,0.16,1.38,0.49,1.78c0.33,0.4,0.87,0.59,1.62,0.59c0.59,0,1.03-0.1,1.32-0.29
			c0.29-0.19,0.43-0.52,0.43-0.98v-0.74h2.83v2.62c-0.62,0.39-1.29,0.67-2,0.86c-0.71,0.19-1.57,0.28-2.57,0.28
			c-0.95,0-1.74-0.09-2.37-0.27c-0.63-0.18-1.14-0.45-1.52-0.81c-0.39-0.36-0.66-0.79-0.81-1.31s-0.23-1.11-0.23-1.78v-3.11
			c0-1.43,0.38-2.48,1.13-3.14c0.75-0.66,1.98-1,3.69-1c0.98,0,1.78,0.1,2.4,0.3s1.1,0.49,1.45,0.86c0.35,0.37,0.59,0.83,0.73,1.37
			c0.13,0.54,0.2,1.14,0.2,1.81v1.88H62.99z M66.95,106.53v-0.4c-0.02-0.7-0.16-1.26-0.43-1.68s-0.77-0.63-1.51-0.63
			c-0.74,0-1.26,0.22-1.56,0.65c-0.3,0.43-0.46,1.05-0.46,1.86v0.2H66.95z"/>
		<path class="st0" d="M71.82,111.56c0.29-0.07,0.48-0.18,0.57-0.32c0.08-0.14,0.12-0.39,0.12-0.75v-5.44
			c-0.02-0.34-0.06-0.58-0.14-0.73s-0.26-0.25-0.55-0.33v-1.7h3.42v0.92c0.41-0.31,0.86-0.57,1.35-0.77c0.49-0.2,1.06-0.3,1.7-0.3
			c0.74,0,1.33,0.12,1.78,0.35c0.45,0.23,0.82,0.56,1.09,0.97c0.46-0.4,0.95-0.72,1.49-0.96c0.53-0.24,1.18-0.36,1.93-0.36
			c0.74,0,1.33,0.11,1.77,0.31c0.44,0.21,0.78,0.47,1.01,0.79c0.23,0.32,0.38,0.67,0.46,1.05c0.07,0.38,0.11,0.75,0.11,1.11v5.17
			c0,0.36,0.04,0.59,0.12,0.71s0.26,0.21,0.54,0.28v1.7h-3.32c-0.03-0.24-0.06-0.45-0.09-0.63c-0.02-0.18-0.05-0.37-0.06-0.56
			c-0.02-0.19-0.02-0.4-0.02-0.63s0-0.49,0-0.81v-4.59c0-0.72-0.13-1.22-0.38-1.51c-0.25-0.29-0.67-0.44-1.24-0.44
			c-0.38,0-0.73,0.09-1.07,0.28c-0.34,0.19-0.59,0.43-0.77,0.73v5.37c0,0.36,0.04,0.61,0.11,0.75c0.07,0.14,0.26,0.25,0.55,0.32v1.7
			h-3.32c-0.08-0.43-0.13-0.83-0.15-1.2c-0.02-0.37-0.02-0.82-0.02-1.38v-4.63c0-0.72-0.13-1.22-0.38-1.51
			c-0.25-0.29-0.67-0.44-1.24-0.44c-0.39,0-0.76,0.1-1.09,0.29s-0.59,0.4-0.77,0.6v5.48c0,0.36,0.04,0.61,0.11,0.75
			c0.07,0.14,0.27,0.25,0.58,0.32v1.7h-4.18V111.56z"/>
		<path class="st0" d="M93.43,108.3v1.07c0,0.79,0.16,1.38,0.49,1.78c0.33,0.4,0.87,0.59,1.62,0.59c0.59,0,1.03-0.1,1.32-0.29
			c0.29-0.19,0.43-0.52,0.43-0.98v-0.74h2.83v2.62c-0.62,0.39-1.29,0.67-2,0.86c-0.71,0.19-1.57,0.28-2.57,0.28
			c-0.95,0-1.74-0.09-2.37-0.27c-0.63-0.18-1.14-0.45-1.52-0.81c-0.39-0.36-0.66-0.79-0.81-1.31s-0.23-1.11-0.23-1.78v-3.11
			c0-1.43,0.38-2.48,1.13-3.14c0.75-0.66,1.98-1,3.69-1c0.98,0,1.78,0.1,2.4,0.3s1.1,0.49,1.45,0.86c0.35,0.37,0.59,0.83,0.73,1.37
			c0.13,0.54,0.2,1.14,0.2,1.81v1.88H93.43z M97.39,106.53v-0.4c-0.02-0.7-0.16-1.26-0.43-1.68s-0.77-0.63-1.51-0.63
			c-0.74,0-1.26,0.22-1.56,0.65c-0.3,0.43-0.46,1.05-0.46,1.86v0.2H97.39z"/>
		<path class="st0" d="M102.26,111.56c0.29-0.07,0.48-0.18,0.57-0.32c0.08-0.14,0.12-0.39,0.12-0.75v-5.44
			c-0.02-0.34-0.06-0.58-0.14-0.73s-0.26-0.25-0.55-0.33v-1.7h3.42v0.92c0.43-0.31,0.9-0.57,1.41-0.77c0.52-0.2,1.11-0.3,1.78-0.3
			c0.75,0,1.36,0.11,1.82,0.31c0.46,0.21,0.81,0.47,1.06,0.79c0.25,0.32,0.41,0.67,0.49,1.06c0.08,0.39,0.12,0.76,0.12,1.12v5.06
			c0,0.36,0.04,0.61,0.12,0.75c0.08,0.14,0.26,0.25,0.54,0.32v1.7h-3.32c-0.03-0.24-0.06-0.46-0.09-0.67
			c-0.02-0.21-0.05-0.42-0.06-0.63s-0.02-0.43-0.02-0.67c0-0.24,0-0.51,0-0.81v-4.43c0-0.72-0.14-1.22-0.41-1.51
			s-0.72-0.44-1.34-0.44c-0.43,0-0.82,0.1-1.19,0.29c-0.37,0.19-0.65,0.4-0.85,0.6v5.48c0,0.36,0.04,0.61,0.11,0.75
			c0.07,0.14,0.27,0.25,0.58,0.32v1.7h-4.18V111.56z"/>
		<path class="st0" d="M118.19,102.3h1.77v1.83h-1.77v6c0,0.51,0.12,0.86,0.37,1.06c0.25,0.2,0.63,0.32,1.16,0.35h0.29v1.7
			c-0.23,0.04-0.47,0.08-0.73,0.1c-0.25,0.02-0.5,0.03-0.73,0.03c-0.61,0-1.11-0.06-1.52-0.19c-0.41-0.13-0.74-0.31-0.98-0.55
			c-0.25-0.24-0.42-0.53-0.53-0.88c-0.11-0.35-0.16-0.74-0.16-1.17v-6.44h-0.89v-1.83h0.89v-2.64l2.83-0.65V102.3z"/>
		<path class="st0" d="M130.02,105.59h-2.66v-0.72c0-0.7-0.53-1.05-1.6-1.05c-0.59,0-1.02,0.12-1.3,0.36
			c-0.28,0.24-0.42,0.54-0.42,0.92c0,0.21,0.04,0.39,0.11,0.54c0.07,0.15,0.2,0.28,0.38,0.39c0.18,0.11,0.43,0.22,0.75,0.32
			c0.32,0.1,0.72,0.22,1.19,0.34c0.64,0.16,1.2,0.34,1.68,0.53c0.48,0.19,0.89,0.41,1.2,0.67c0.32,0.26,0.56,0.57,0.71,0.92
			c0.16,0.35,0.23,0.76,0.23,1.24c0,1.15-0.4,2.01-1.2,2.57c-0.8,0.57-1.93,0.85-3.37,0.85c-1.67,0-3.11-0.32-4.3-0.96v-2.84h2.68
			v0.96c0,0.4,0.16,0.69,0.48,0.86c0.32,0.17,0.68,0.26,1.07,0.26c0.59,0,1.05-0.14,1.36-0.43c0.32-0.28,0.48-0.64,0.48-1.07
			c0-0.22-0.03-0.42-0.1-0.58c-0.07-0.16-0.18-0.31-0.36-0.45c-0.17-0.13-0.41-0.26-0.73-0.37c-0.31-0.11-0.71-0.23-1.2-0.35
			c-0.61-0.15-1.15-0.31-1.62-0.48c-0.48-0.17-0.87-0.38-1.19-0.63c-0.32-0.25-0.57-0.53-0.74-0.86c-0.17-0.33-0.26-0.72-0.26-1.16
			c0-1.07,0.38-1.89,1.14-2.44c0.76-0.55,1.86-0.83,3.31-0.83c0.79,0,1.56,0.07,2.31,0.22c0.75,0.15,1.4,0.35,1.94,0.6V105.59z"/>
		<path class="st0" d="M137.96,111.56c0.29-0.07,0.48-0.18,0.57-0.32c0.08-0.14,0.12-0.39,0.12-0.75v-5.44
			c-0.02-0.34-0.06-0.58-0.14-0.73s-0.26-0.25-0.55-0.33v-1.7h3.42v0.92c0.43-0.31,0.9-0.57,1.41-0.77c0.52-0.2,1.11-0.3,1.78-0.3
			c0.75,0,1.36,0.11,1.82,0.31c0.46,0.21,0.81,0.47,1.06,0.79c0.25,0.32,0.41,0.67,0.49,1.06c0.08,0.39,0.12,0.76,0.12,1.12v5.06
			c0,0.36,0.04,0.61,0.12,0.75c0.08,0.14,0.26,0.25,0.54,0.32v1.7h-3.32c-0.03-0.24-0.06-0.46-0.09-0.67
			c-0.02-0.21-0.05-0.42-0.06-0.63s-0.02-0.43-0.02-0.67c0-0.24,0-0.51,0-0.81v-4.43c0-0.72-0.14-1.22-0.41-1.51
			s-0.72-0.44-1.34-0.44c-0.43,0-0.82,0.1-1.19,0.29c-0.37,0.19-0.65,0.4-0.85,0.6v5.48c0,0.36,0.04,0.61,0.11,0.75
			c0.07,0.14,0.27,0.25,0.58,0.32v1.7h-4.18V111.56z"/>
		<path class="st0" d="M151.09,102.99c0.72-0.3,1.43-0.53,2.11-0.68c0.69-0.16,1.52-0.23,2.48-0.23c1.54,0,2.62,0.29,3.25,0.86
			s0.93,1.5,0.93,2.76v4.79c0,0.36,0.04,0.61,0.12,0.75c0.08,0.14,0.27,0.25,0.57,0.32v1.7h-3.37v-1.05
			c-0.48,0.37-0.99,0.68-1.55,0.92c-0.56,0.24-1.16,0.36-1.79,0.36c-1.11,0-1.94-0.26-2.48-0.79s-0.81-1.26-0.81-2.18
			c0-0.48,0.09-0.9,0.26-1.25c0.17-0.36,0.41-0.67,0.73-0.94s0.68-0.5,1.12-0.71c0.43-0.2,0.91-0.38,1.44-0.55l3-0.96v-0.33
			c0-0.64-0.1-1.13-0.31-1.46c-0.21-0.33-0.64-0.49-1.29-0.49c-0.67,0-1.13,0.09-1.38,0.28c-0.25,0.19-0.37,0.49-0.37,0.91v0.72
			h-2.66V102.99z M155.91,108.37c-0.89,0.31-1.52,0.6-1.91,0.86s-0.58,0.62-0.58,1.06c0,0.37,0.13,0.66,0.39,0.86
			c0.26,0.2,0.6,0.3,1.01,0.3c0.46,0,0.89-0.12,1.28-0.35s0.72-0.47,0.98-0.73v-2.42L155.91,108.37z"/>
		<path class="st0" d="M164.98,113.27l-2.98-8.32c-0.13-0.36-0.24-0.59-0.33-0.68c-0.09-0.1-0.23-0.18-0.43-0.26v-1.7h4.06v1.7
			c-0.33,0.04-0.49,0.22-0.49,0.51c0,0.04,0.01,0.1,0.02,0.17c0.02,0.07,0.03,0.13,0.05,0.19l1.48,4.14c0.06,0.19,0.13,0.4,0.2,0.63
			c0.06,0.22,0.13,0.44,0.2,0.65c0.03-0.16,0.09-0.38,0.17-0.65s0.15-0.48,0.2-0.65l1.33-4.14c0.05-0.13,0.07-0.25,0.07-0.36
			c0-0.24-0.16-0.4-0.47-0.49v-1.7h3.64v1.7c-0.18,0.04-0.32,0.12-0.43,0.24c-0.11,0.11-0.2,0.28-0.28,0.5l-2.88,8.53H164.98z"/>
		<path class="st0" d="M172.95,102.99c0.72-0.3,1.43-0.53,2.12-0.68c0.69-0.16,1.52-0.23,2.48-0.23c1.54,0,2.62,0.29,3.25,0.86
			c0.62,0.57,0.93,1.5,0.93,2.76v4.79c0,0.36,0.04,0.61,0.12,0.75c0.08,0.14,0.27,0.25,0.57,0.32v1.7h-3.37v-1.05
			c-0.48,0.37-0.99,0.68-1.55,0.92c-0.56,0.24-1.16,0.36-1.79,0.36c-1.12,0-1.94-0.26-2.48-0.79c-0.54-0.53-0.81-1.26-0.81-2.18
			c0-0.48,0.09-0.9,0.26-1.25c0.17-0.36,0.41-0.67,0.73-0.94c0.31-0.27,0.68-0.5,1.12-0.71s0.91-0.38,1.44-0.55l3-0.96v-0.33
			c0-0.64-0.1-1.13-0.31-1.46s-0.63-0.49-1.29-0.49c-0.67,0-1.13,0.09-1.38,0.28c-0.25,0.19-0.37,0.49-0.37,0.91v0.72h-2.66V102.99z
			 M177.77,108.37c-0.89,0.31-1.52,0.6-1.91,0.86s-0.58,0.62-0.58,1.06c0,0.37,0.13,0.66,0.39,0.86c0.26,0.2,0.6,0.3,1.01,0.3
			c0.46,0,0.88-0.12,1.28-0.35s0.72-0.47,0.98-0.73v-2.42L177.77,108.37z"/>
		<path class="st0" d="M183.87,111.56c0.29-0.07,0.48-0.18,0.57-0.32c0.08-0.14,0.12-0.39,0.12-0.75v-9.38
			c0-0.36-0.04-0.61-0.12-0.75s-0.27-0.25-0.57-0.33v-1.7h3.49v12.15c0,0.36,0.04,0.61,0.11,0.75c0.07,0.14,0.27,0.25,0.58,0.32v1.7
			h-4.18V111.56z"/>
		<path class="st0" d="M198.72,105.59h-2.66v-0.72c0-0.7-0.53-1.05-1.6-1.05c-0.59,0-1.02,0.12-1.3,0.36
			c-0.28,0.24-0.42,0.54-0.42,0.92c0,0.21,0.04,0.39,0.11,0.54c0.07,0.15,0.2,0.28,0.38,0.39c0.18,0.11,0.43,0.22,0.75,0.32
			c0.32,0.1,0.72,0.22,1.19,0.34c0.64,0.16,1.2,0.34,1.68,0.53s0.88,0.41,1.21,0.67c0.32,0.26,0.56,0.57,0.71,0.92
			c0.16,0.35,0.23,0.76,0.23,1.24c0,1.15-0.4,2.01-1.21,2.57c-0.8,0.57-1.93,0.85-3.37,0.85c-1.67,0-3.11-0.32-4.3-0.96v-2.84h2.68
			v0.96c0,0.4,0.16,0.69,0.48,0.86c0.32,0.17,0.68,0.26,1.07,0.26c0.59,0,1.04-0.14,1.37-0.43c0.32-0.28,0.48-0.64,0.48-1.07
			c0-0.22-0.03-0.42-0.1-0.58s-0.18-0.31-0.36-0.45c-0.17-0.13-0.41-0.26-0.73-0.37c-0.31-0.11-0.71-0.23-1.21-0.35
			c-0.61-0.15-1.15-0.31-1.62-0.48c-0.48-0.17-0.87-0.38-1.19-0.63c-0.32-0.25-0.57-0.53-0.74-0.86s-0.26-0.72-0.26-1.16
			c0-1.07,0.38-1.89,1.14-2.44c0.76-0.55,1.87-0.83,3.31-0.83c0.79,0,1.56,0.07,2.31,0.22c0.75,0.15,1.4,0.35,1.94,0.6V105.59z"/>
		<path class="st0" d="M209.53,108.3v1.07c0,0.79,0.16,1.38,0.49,1.78s0.87,0.59,1.62,0.59c0.59,0,1.03-0.1,1.32-0.29
			c0.29-0.19,0.43-0.52,0.43-0.98v-0.74h2.83v2.62c-0.62,0.39-1.29,0.67-2,0.86s-1.57,0.28-2.57,0.28c-0.95,0-1.74-0.09-2.37-0.27
			s-1.14-0.45-1.52-0.81c-0.39-0.36-0.66-0.79-0.81-1.31c-0.16-0.51-0.23-1.11-0.23-1.78v-3.11c0-1.43,0.38-2.48,1.13-3.14
			c0.75-0.66,1.98-1,3.69-1c0.98,0,1.78,0.1,2.4,0.3c0.61,0.2,1.1,0.49,1.45,0.86c0.35,0.37,0.59,0.83,0.73,1.37s0.2,1.14,0.2,1.81
			v1.88H209.53z M213.49,106.53v-0.4c-0.02-0.7-0.16-1.26-0.43-1.68s-0.77-0.63-1.51-0.63c-0.74,0-1.26,0.22-1.56,0.65
			s-0.46,1.05-0.46,1.86v0.2H213.49z"/>
		<path class="st0" d="M221.51,102.3h1.77v1.83h-1.77v6c0,0.51,0.12,0.86,0.37,1.06c0.25,0.2,0.63,0.32,1.16,0.35h0.29v1.7
			c-0.23,0.04-0.47,0.08-0.73,0.1c-0.25,0.02-0.5,0.03-0.73,0.03c-0.61,0-1.12-0.06-1.52-0.19c-0.41-0.13-0.74-0.31-0.98-0.55
			c-0.25-0.24-0.42-0.53-0.53-0.88c-0.11-0.35-0.16-0.74-0.16-1.17v-6.44h-0.89v-1.83h0.89v-2.64l2.83-0.65V102.3z"/>
		<path class="st0" d="M230.71,111.56c0.29-0.07,0.48-0.18,0.57-0.32c0.08-0.14,0.12-0.39,0.12-0.75v-5.42
			c0-0.36-0.04-0.61-0.12-0.75c-0.08-0.14-0.27-0.25-0.57-0.33v-1.7h3.49v8.19c0,0.36,0.04,0.61,0.11,0.75
			c0.07,0.14,0.27,0.25,0.58,0.32v1.7h-4.18V111.56z M234.25,99.62c0,0.46-0.16,0.83-0.47,1.11c-0.31,0.28-0.71,0.41-1.18,0.41
			s-0.87-0.13-1.18-0.4c-0.31-0.27-0.47-0.64-0.47-1.12c0-0.43,0.16-0.79,0.47-1.06c0.31-0.28,0.7-0.41,1.18-0.41
			s0.87,0.14,1.18,0.41S234.25,99.18,234.25,99.62z"/>
		<path class="st0" d="M236.85,111.56c0.29-0.07,0.48-0.18,0.57-0.32c0.08-0.14,0.12-0.39,0.12-0.75v-5.44
			c-0.02-0.34-0.06-0.58-0.14-0.73c-0.07-0.14-0.26-0.25-0.55-0.33v-1.7h3.42v0.92c0.43-0.31,0.9-0.57,1.41-0.77s1.11-0.3,1.78-0.3
			c0.75,0,1.36,0.11,1.82,0.31c0.46,0.21,0.81,0.47,1.06,0.79c0.25,0.32,0.41,0.67,0.49,1.06c0.08,0.39,0.12,0.76,0.12,1.12v5.06
			c0,0.36,0.04,0.61,0.12,0.75c0.08,0.14,0.26,0.25,0.54,0.32v1.7h-3.32c-0.03-0.24-0.06-0.46-0.09-0.67
			c-0.03-0.21-0.05-0.42-0.06-0.63c-0.02-0.21-0.02-0.43-0.02-0.67c0-0.24,0-0.51,0-0.81v-4.43c0-0.72-0.14-1.22-0.41-1.51
			s-0.72-0.44-1.34-0.44c-0.43,0-0.82,0.1-1.19,0.29c-0.37,0.19-0.65,0.4-0.85,0.6v5.48c0,0.36,0.04,0.61,0.11,0.75
			c0.07,0.14,0.27,0.25,0.58,0.32v1.7h-4.18V111.56z"/>
		<path class="st0" d="M259.28,110.49c0,0.36,0.04,0.61,0.11,0.75c0.07,0.14,0.27,0.25,0.6,0.32v1.7h-3.42v-0.85
			c-0.52,0.34-1.03,0.6-1.52,0.76c-0.49,0.16-1.02,0.25-1.57,0.25c-1.34,0-2.31-0.34-2.9-1.03c-0.59-0.69-0.88-1.66-0.88-2.93v-3.58
			c0-1.19,0.31-2.12,0.92-2.77c0.62-0.66,1.53-0.98,2.74-0.98c0.69,0,1.27,0.07,1.76,0.22s0.95,0.35,1.39,0.6v-1.86
			c-0.02-0.34-0.06-0.58-0.13-0.73s-0.27-0.25-0.58-0.33v-1.7h3.49V110.49z M256.5,104.76c-0.26-0.19-0.58-0.35-0.95-0.48
			s-0.74-0.19-1.12-0.19s-0.69,0.06-0.93,0.18c-0.25,0.12-0.44,0.29-0.59,0.5c-0.15,0.22-0.25,0.48-0.31,0.78
			c-0.06,0.31-0.09,0.65-0.09,1.02v2.35c0,0.51,0.05,0.92,0.14,1.25s0.22,0.59,0.39,0.77c0.17,0.19,0.38,0.32,0.61,0.39
			c0.24,0.08,0.51,0.11,0.82,0.11c0.7,0,1.38-0.25,2.02-0.74V104.76z"/>
		<path class="st0" d="M269.09,113.27v-0.96c-0.43,0.33-0.9,0.6-1.41,0.81c-0.52,0.21-1.12,0.31-1.81,0.31
			c-0.62,0-1.14-0.08-1.56-0.23c-0.42-0.16-0.76-0.38-1.03-0.66s-0.46-0.62-0.58-1.01c-0.12-0.39-0.17-0.81-0.17-1.28v-5.17
			c0-0.36-0.04-0.61-0.11-0.75c-0.07-0.14-0.27-0.25-0.58-0.33v-1.7h3.34c0.08,0.48,0.13,0.91,0.15,1.29
			c0.02,0.38,0.02,0.87,0.02,1.47v4.45c0,0.7,0.13,1.21,0.38,1.51c0.25,0.31,0.66,0.46,1.22,0.46c0.46,0,0.87-0.1,1.24-0.3
			c0.37-0.2,0.64-0.4,0.82-0.59v-5.5c0-0.36-0.04-0.61-0.12-0.75s-0.28-0.25-0.59-0.33v-1.7h3.52v8.21c0,0.34,0.04,0.58,0.11,0.73
			c0.07,0.14,0.27,0.25,0.58,0.32v1.7H269.09z"/>
		<path class="st0" d="M282.96,105.59h-2.66v-0.72c0-0.7-0.53-1.05-1.6-1.05c-0.59,0-1.02,0.12-1.3,0.36
			c-0.28,0.24-0.42,0.54-0.42,0.92c0,0.21,0.04,0.39,0.11,0.54c0.07,0.15,0.2,0.28,0.38,0.39c0.18,0.11,0.43,0.22,0.75,0.32
			c0.32,0.1,0.72,0.22,1.19,0.34c0.64,0.16,1.2,0.34,1.68,0.53s0.88,0.41,1.21,0.67c0.32,0.26,0.56,0.57,0.71,0.92
			c0.16,0.35,0.23,0.76,0.23,1.24c0,1.15-0.4,2.01-1.21,2.57c-0.8,0.57-1.93,0.85-3.37,0.85c-1.67,0-3.11-0.32-4.3-0.96v-2.84h2.68
			v0.96c0,0.4,0.16,0.69,0.48,0.86c0.32,0.17,0.68,0.26,1.07,0.26c0.59,0,1.04-0.14,1.37-0.43c0.32-0.28,0.48-0.64,0.48-1.07
			c0-0.22-0.03-0.42-0.1-0.58s-0.18-0.31-0.36-0.45c-0.17-0.13-0.41-0.26-0.73-0.37c-0.31-0.11-0.71-0.23-1.21-0.35
			c-0.61-0.15-1.15-0.31-1.62-0.48c-0.48-0.17-0.87-0.38-1.19-0.63c-0.32-0.25-0.57-0.53-0.74-0.86s-0.26-0.72-0.26-1.16
			c0-1.07,0.38-1.89,1.14-2.44c0.76-0.55,1.87-0.83,3.31-0.83c0.79,0,1.56,0.07,2.31,0.22c0.75,0.15,1.4,0.35,1.94,0.6V105.59z"/>
		<path class="st0" d="M288.27,102.3h1.77v1.83h-1.77v6c0,0.51,0.12,0.86,0.37,1.06c0.25,0.2,0.63,0.32,1.16,0.35h0.29v1.7
			c-0.23,0.04-0.47,0.08-0.73,0.1c-0.25,0.02-0.5,0.03-0.73,0.03c-0.61,0-1.12-0.06-1.52-0.19c-0.41-0.13-0.74-0.31-0.98-0.55
			c-0.25-0.24-0.42-0.53-0.53-0.88c-0.11-0.35-0.16-0.74-0.16-1.17v-6.44h-0.89v-1.83h0.89v-2.64l2.83-0.65V102.3z"/>
		<path class="st0" d="M291.69,111.56c0.29-0.07,0.48-0.18,0.57-0.32c0.08-0.14,0.12-0.39,0.12-0.75v-5.42
			c-0.02-0.36-0.06-0.61-0.14-0.75c-0.07-0.14-0.26-0.25-0.55-0.33v-1.7h3.37v1.28c0.2-0.37,0.48-0.71,0.84-1.02
			c0.36-0.31,0.83-0.46,1.4-0.46c0.08,0,0.16,0,0.25,0s0.18,0.01,0.29,0.04v2.39c-0.1-0.01-0.18-0.03-0.26-0.03
			c-0.07-0.01-0.16-0.01-0.26-0.01c-0.54,0-1.03,0.23-1.48,0.68c-0.44,0.46-0.66,1.15-0.66,2.07v3.25c0,0.36,0.04,0.61,0.12,0.75
			c0.08,0.14,0.29,0.25,0.61,0.32v1.7h-4.23V111.56z"/>
		<path class="st0" d="M299.46,111.56c0.29-0.07,0.48-0.18,0.57-0.32c0.08-0.14,0.12-0.39,0.12-0.75v-5.42
			c0-0.36-0.04-0.61-0.12-0.75c-0.08-0.14-0.27-0.25-0.57-0.33v-1.7h3.49v8.19c0,0.36,0.04,0.61,0.11,0.75
			c0.07,0.14,0.27,0.25,0.58,0.32v1.7h-4.18V111.56z M303,99.62c0,0.46-0.16,0.83-0.47,1.11c-0.31,0.28-0.71,0.41-1.18,0.41
			s-0.87-0.13-1.18-0.4c-0.31-0.27-0.47-0.64-0.47-1.12c0-0.43,0.16-0.79,0.47-1.06c0.31-0.28,0.7-0.41,1.18-0.41
			s0.87,0.14,1.18,0.41S303,99.18,303,99.62z"/>
		<path class="st0" d="M308.48,108.3v1.07c0,0.79,0.16,1.38,0.49,1.78s0.87,0.59,1.62,0.59c0.59,0,1.03-0.1,1.32-0.29
			c0.29-0.19,0.43-0.52,0.43-0.98v-0.74h2.83v2.62c-0.62,0.39-1.29,0.67-2,0.86s-1.57,0.28-2.57,0.28c-0.95,0-1.74-0.09-2.37-0.27
			s-1.14-0.45-1.52-0.81c-0.39-0.36-0.66-0.79-0.81-1.31c-0.16-0.51-0.23-1.11-0.23-1.78v-3.11c0-1.43,0.38-2.48,1.13-3.14
			c0.75-0.66,1.98-1,3.69-1c0.98,0,1.78,0.1,2.4,0.3c0.61,0.2,1.1,0.49,1.45,0.86c0.35,0.37,0.59,0.83,0.73,1.37s0.2,1.14,0.2,1.81
			v1.88H308.48z M312.44,106.53v-0.4c-0.02-0.7-0.16-1.26-0.43-1.68s-0.77-0.63-1.51-0.63c-0.74,0-1.26,0.22-1.56,0.65
			s-0.46,1.05-0.46,1.86v0.2H312.44z"/>
		<path class="st0" d="M317.13,111.56c0.29-0.07,0.48-0.18,0.57-0.32c0.08-0.14,0.12-0.39,0.12-0.75v-9.38
			c0-0.36-0.04-0.61-0.12-0.75s-0.27-0.25-0.57-0.33v-1.7h3.49v12.15c0,0.36,0.04,0.61,0.11,0.75c0.07,0.14,0.27,0.25,0.58,0.32v1.7
			h-4.18V111.56z"/>
		<path class="st0" d="M331.99,105.59h-2.66v-0.72c0-0.7-0.53-1.05-1.6-1.05c-0.59,0-1.02,0.12-1.3,0.36
			c-0.28,0.24-0.42,0.54-0.42,0.92c0,0.21,0.04,0.39,0.11,0.54c0.07,0.15,0.2,0.28,0.38,0.39c0.18,0.11,0.43,0.22,0.75,0.32
			c0.32,0.1,0.72,0.22,1.19,0.34c0.64,0.16,1.2,0.34,1.68,0.53s0.88,0.41,1.21,0.67c0.32,0.26,0.56,0.57,0.71,0.92
			c0.16,0.35,0.23,0.76,0.23,1.24c0,1.15-0.4,2.01-1.21,2.57c-0.8,0.57-1.93,0.85-3.37,0.85c-1.67,0-3.11-0.32-4.3-0.96v-2.84h2.68
			v0.96c0,0.4,0.16,0.69,0.48,0.86c0.32,0.17,0.68,0.26,1.07,0.26c0.59,0,1.04-0.14,1.37-0.43c0.32-0.28,0.48-0.64,0.48-1.07
			c0-0.22-0.03-0.42-0.1-0.58s-0.18-0.31-0.36-0.45c-0.17-0.13-0.41-0.26-0.73-0.37c-0.31-0.11-0.71-0.23-1.21-0.35
			c-0.61-0.15-1.15-0.31-1.62-0.48c-0.48-0.17-0.87-0.38-1.19-0.63c-0.32-0.25-0.57-0.53-0.74-0.86s-0.26-0.72-0.26-1.16
			c0-1.07,0.38-1.89,1.14-2.44c0.76-0.55,1.87-0.83,3.31-0.83c0.79,0,1.56,0.07,2.31,0.22c0.75,0.15,1.4,0.35,1.94,0.6V105.59z"/>
	</g>
	<rect x="98.42" y="14.18" class="st0" width="2" height="68.83"/>
	<g>
		<path class="st1" d="M30.99,18.45c2.06,0,4.08,0,6.12,0c0-1.04,0-2.05,0-3.08c-2.06,0-4.08,0-6.12,0
			C30.99,16.41,30.99,17.43,30.99,18.45z"/>
		<path class="st1" d="M48.91,18.5c0,0,0.01-2.28,0.01-3.14c-2.32,0-4.57,0-6.87,0c0,1.07,0,2.1,0,3.15
			C44.27,18.51,46.74,18.51,48.91,18.5z"/>
		<path class="st1" d="M53.82,18.45c2.07,0,4.08,0,6.12,0c0-1.05,0-2.06,0-3.09c-2.06,0-4.06,0-6.12,0
			C53.82,16.42,53.82,17.43,53.82,18.45z"/>
		<path class="st0" d="M86.17,27.15c-6.68-1.69-13.22-2.87-19.52-3.66c0-1.62,0-3.18,0-4.74c-0.19-0.02-0.34-0.02-0.49-0.04
			c-1.29-0.23-1.73-0.64-1.46-1.7c0.08-0.3,0.08-0.61,0.16-0.91c0.05-0.17,0.12-0.38,0.27-0.5c0.98-0.72,1.98-1.42,2.97-2.14
			c0.18-0.13,0.42-0.31,0.44-0.48c0.05-0.71,0.02-1.42,0.02-2.19c-4.39,0-8.71,0-13.12,0c0-1.54,0-3.04,0-4.58
			c-1.47,0-5.69,0-9.92,0.01V3.87h3.84V2.94h-8.96v0.94h3.84v2.35c-3.81,0-7.41,0-8.74,0c0,1.55,0,3.05,0,4.59
			c-4.39,0-8.72,0-13.1,0c0,0.74-0.02,1.44,0.01,2.14c0.01,0.14,0.17,0.3,0.31,0.4c1.05,0.77,2.11,1.52,3.16,2.28
			c0.09,0.06,0.2,0.14,0.22,0.22c0.09,0.57,0.16,1.14,0.22,1.71c0.04,0.45-0.22,0.77-0.71,0.93c-0.42,0.14-0.87,0.21-1.33,0.32
			c0,1.54,0,3.09,0,4.68c-6.29,0.79-12.82,1.97-19.5,3.65c0,0-1,6.21-0.13,15.39c12.96-3.27,26.66-4.96,40.7-5.01v0l0.13,0l0.13,0v0
			c14.04,0.05,27.74,1.74,40.7,5.01C87.17,33.36,86.17,27.15,86.17,27.15z M18.13,32.4c-0.69,0.6-1.39,1.21-2.08,1.81
			c-0.15,0.13-0.31,0.27-0.46,0.4c-0.04,0.04-0.05,0.07-0.04,0.12c0.25,1.09,0.5,2.18,0.75,3.27c0.01,0.04,0.02,0.08,0.03,0.14
			c-0.16-0.09-0.3-0.17-0.43-0.26c-0.86-0.51-1.71-1.02-2.57-1.54c-0.06-0.04-0.1-0.03-0.16,0c-0.94,0.56-1.88,1.12-2.82,1.68
			c-0.05,0.03-0.11,0.06-0.19,0.11c0.03-0.15,0.06-0.28,0.09-0.41c0.23-0.99,0.45-1.97,0.68-2.96c0.02-0.09-0.01-0.14-0.07-0.2
			c-0.83-0.72-1.66-1.45-2.5-2.17c-0.02-0.02-0.05-0.04-0.09-0.08c0.07-0.01,0.11-0.01,0.16-0.02c1.04-0.09,2.08-0.18,3.13-0.25
			c0.22-0.02,0.32-0.09,0.4-0.29c0.4-0.99,0.82-1.98,1.24-2.97c0.01-0.03,0.02-0.05,0.05-0.1c0.08,0.19,0.15,0.36,0.23,0.53
			c0.38,0.89,0.75,1.78,1.13,2.66c0.03,0.06,0.06,0.09,0.13,0.1c1.11,0.11,2.22,0.21,3.34,0.32c0.04,0,0.08,0.01,0.12,0.02
			c0.01,0.01,0.02,0.02,0.03,0.04C18.18,32.37,18.15,32.38,18.13,32.4z M42.05,15.36c2.3,0,4.55,0,6.87,0
			c0,0.86-0.01,3.14-0.01,3.14c-2.18,0.01-4.65,0.01-6.87,0.01C42.05,17.45,42.05,16.42,42.05,15.36z M37.11,18.45
			c-2.04,0-4.06,0-6.12,0c0-1.02,0-2.04,0-3.08c2.04,0,4.06,0,6.12,0C37.11,16.4,37.11,17.4,37.11,18.45z M50.33,28.66
			c-0.69,0.6-1.39,1.21-2.08,1.81c-0.15,0.13-0.31,0.27-0.46,0.4c-0.04,0.04-0.05,0.07-0.04,0.12c0.25,1.09,0.5,2.18,0.75,3.27
			c0.01,0.04,0.02,0.08,0.03,0.14c-0.16-0.09-0.3-0.17-0.43-0.26c-0.86-0.51-1.71-1.02-2.57-1.54c-0.06-0.04-0.1-0.03-0.16,0
			c-0.94,0.56-1.88,1.12-2.82,1.68c-0.05,0.03-0.11,0.06-0.19,0.11c0.03-0.15,0.06-0.28,0.09-0.41c0.23-0.99,0.45-1.97,0.68-2.96
			c0.02-0.09-0.01-0.14-0.07-0.2c-0.83-0.72-1.66-1.45-2.5-2.17c-0.02-0.02-0.05-0.04-0.09-0.08c0.07-0.01,0.11-0.01,0.16-0.02
			c1.04-0.09,2.08-0.18,3.13-0.25c0.22-0.02,0.32-0.09,0.4-0.29c0.4-0.99,0.82-1.98,1.24-2.97c0.01-0.03,0.02-0.05,0.05-0.1
			c0.08,0.19,0.15,0.36,0.23,0.53c0.38,0.89,0.75,1.78,1.13,2.66c0.03,0.06,0.06,0.09,0.13,0.1c1.11,0.11,2.22,0.21,3.34,0.32
			c0.04,0,0.08,0.01,0.12,0.02c0.01,0.01,0.02,0.02,0.03,0.04C50.38,28.63,50.35,28.64,50.33,28.66z M59.94,18.45
			c-2.03,0-4.05,0-6.12,0c0-1.01,0-2.03,0-3.09c2.05,0,4.06,0,6.12,0C59.94,16.38,59.94,17.4,59.94,18.45z M82.57,32.4
			c-0.69,0.6-1.39,1.21-2.08,1.81c-0.15,0.13-0.31,0.27-0.46,0.4c-0.04,0.04-0.05,0.07-0.04,0.12c0.25,1.09,0.5,2.18,0.75,3.27
			c0.01,0.04,0.02,0.08,0.03,0.14c-0.16-0.09-0.3-0.17-0.43-0.26c-0.86-0.51-1.71-1.02-2.57-1.54c-0.06-0.04-0.1-0.03-0.16,0
			c-0.94,0.56-1.88,1.12-2.82,1.68c-0.05,0.03-0.11,0.06-0.19,0.11c0.03-0.15,0.06-0.28,0.09-0.41c0.23-0.99,0.45-1.97,0.68-2.96
			c0.02-0.09-0.01-0.14-0.07-0.2c-0.83-0.72-1.66-1.45-2.5-2.17c-0.02-0.02-0.05-0.04-0.09-0.08c0.07-0.01,0.11-0.01,0.16-0.02
			c1.04-0.09,2.08-0.18,3.13-0.25c0.22-0.02,0.32-0.09,0.4-0.29c0.4-0.99,0.82-1.98,1.24-2.97c0.01-0.03,0.02-0.05,0.05-0.1
			c0.08,0.19,0.15,0.36,0.23,0.53c0.38,0.89,0.75,1.78,1.13,2.66c0.03,0.06,0.06,0.09,0.13,0.1c1.11,0.11,2.22,0.21,3.34,0.32
			c0.04,0,0.08,0.01,0.12,0.02c0.01,0.01,0.02,0.02,0.03,0.04C82.63,32.37,82.6,32.38,82.57,32.4z"/>
		<path class="st0" d="M20.93,87.03c-8.11,2.72-12.89,5.82-12.89,5.82c4.86-1.81,9.64-3.19,14.29-4.2
			c18.15-3.97,34.28-2.46,45.32-0.21c9.5,1.93,15.23,4.41,15.23,4.41c-4.72-2.57-9.36-4.53-13.86-6.01
			C49.22,80.33,31.98,83.32,20.93,87.03z"/>
		<path class="st2" d="M45.46,38.85c-13.99,0.04-27.63,1.72-40.54,4.98c0,0-0.15,0.04-0.15,0.04c1.24,11.1,5.27,26.07,16.72,39.71
			c4.48-1.5,9.99-2.89,16.27-3.57l4.44-16.16c-1.96-1.13-3.28-3.24-3.28-5.67c0-3.61,2.93-6.54,6.54-6.54S52,54.57,52,58.18
			c0,2.29-1.17,4.29-2.95,5.46l4.1,16.27c5.21,0.51,10.71,1.59,16.44,3.47C80.92,69.8,84.92,54.91,86.15,43.87
			c0,0-0.15-0.04-0.15-0.04C73.1,40.57,59.45,38.89,45.46,38.85z"/>
	</g>
</g>
</svg>
